<?xml version="1.0" encoding="UTF-8"?>
<svg id="Layer_1" data-name="Layer 1" xmlns="http://www.w3.org/2000/svg" viewBox="0 0 250 150">
  <defs>
    <style>
      .cls-1 {
        fill: #fff;
      }
    </style>
  </defs>
  <g>
    <path class="cls-1" d="M1.75,74.41c0-7.33,4.41-11.16,10.98-11.16s10.98,3.82,10.98,11.16v11.65h-2.07v-11.65c0-5.94-3.51-9.22-8.91-9.22s-8.91,3.28-8.91,9.22v11.65H1.75v-11.65Z"/>
    <path class="cls-1" d="M38.02,75.49v-11.65h2.07v11.65c0,5.94,3.51,9.23,8.91,9.23s8.91-3.29,8.91-9.23v-11.65h2.07v11.65c0,7.33-4.41,11.16-10.98,11.16s-10.98-3.83-10.98-11.16Z"/>
    <path class="cls-1" d="M73.12,63.83h2.29l9.45,20.2,9.45-20.2h2.2l-10.48,22.23h-2.43l-10.48-22.23Z"/>
    <path class="cls-1" d="M107.72,74.95c0-6.75,4.95-11.7,11.97-11.7s11.93,4.95,11.93,11.7v.54h-21.78c.22,5.35,4.14,9.23,9.85,9.23,4.05,0,7.15-1.85,8.73-4.91h2.25c-1.71,4.14-5.76,6.84-10.98,6.84-7.02,0-11.97-4.95-11.97-11.7ZM129.46,73.6c-.58-5.04-4.46-8.41-9.77-8.41s-9.22,3.42-9.81,8.41h19.57Z"/>
    <path class="cls-1" d="M145.03,72.56c0-6.25,3.73-9.31,9.18-9.31s9.18,3.06,9.18,9.31v.36h-2.03v-.36c0-5.04-2.88-7.38-7.15-7.38s-7.11,2.34-7.11,7.38v13.5h-2.07v-13.5Z"/>
    <path class="cls-1" d="M176.35,75.49v-11.65h2.07v11.65c0,5.94,3.51,9.23,8.91,9.23s8.91-3.29,8.91-9.23v-11.65h2.07v11.65c0,7.33-4.41,11.16-10.98,11.16s-10.98-3.83-10.98-11.16Z"/>
    <path class="cls-1" d="M212.62,72.92c0-6.48,3.78-9.67,8.86-9.67,3.78,0,6.88,1.89,8.14,5.62,1.26-3.73,4.32-5.62,8.14-5.62,5.08,0,8.87,3.19,8.87,9.67v13.14h-2.07v-13.14c0-5.17-2.92-7.74-6.93-7.74s-6.97,2.7-6.97,7.74v13.14h-2.07v-13.14c0-5.04-2.97-7.74-6.98-7.74s-6.93,2.56-6.93,7.74v13.14h-2.07v-13.14Z"/>
  </g>
  <text/>
</svg>