<?xml version="1.0" encoding="utf-8" ?><svg xmlns="http://www.w3.org/2000/svg" xmlns:xlink="http://www.w3.org/1999/xlink" width="509" height="107" viewBox="0 0 509 107"><path fill="none" d="M0 0L509 0L509 107L0 107L0 0Z"/><path fill="#FF004C" d="M308.737 26.9893C315.277 27.2089 323.138 27.0131 329.776 27.0131L370.965 27.0115C370.672 30.5523 370.85 36.0209 370.854 39.7133C370.826 46.5724 370.862 53.4316 370.962 60.29C365.415 60.2902 354.661 60.57 349.646 60.0092C356.643 63.9243 363.99 68.4064 370.902 72.5162C370.972 73.8115 370.94 75.486 370.953 76.8125L370.966 79.2767C368.764 79.2859 356.557 79.5069 355.544 79.0038C346.168 74.3502 333.617 66.3048 324.842 60.9265C324.985 66.9872 324.852 73.177 324.971 79.2889L308.781 79.2601C308.357 62.6291 308.739 43.7715 308.737 26.9893Z"/><path fill="white" d="M324.83 41.2634L354.984 41.2953L355.024 46.0427C345.137 45.8931 334.878 46.0349 324.963 46.0466L324.83 41.2634Z"/><path fill="#FF004C" d="M242.985 26.9874L304.964 27.0113C304.673 29.9481 304.855 36.1654 304.863 39.3027C304.882 46.2091 304.774 53.3962 304.97 60.2792C298.842 60.2819 289.734 60.5376 283.758 60.0689C290.783 63.9999 297.827 68.384 304.842 72.4236C304.932 73.8022 304.912 75.4963 304.931 76.902L304.949 79.277C302.701 79.2756 290.607 79.504 289.623 79.0218C280.318 74.4639 267.519 66.2452 258.843 60.9272C258.976 67 258.853 73.1712 258.971 79.289L243.032 79.2821L242.985 26.9874Z"/><path fill="white" d="M258.831 41.2635L288.984 41.2958L289.025 46.0427C279.156 45.8842 268.865 46.0351 258.964 46.046L258.831 41.2635Z"/><path fill="#FF004C" d="M176.985 26.9896L238.955 27.011C238.658 30.5829 238.892 37.6124 238.979 41.2911L192.83 41.2651L192.963 46.0461L238.941 46.0215C238.654 49.4692 238.895 56.7513 238.979 60.2911C232.747 60.2093 226.369 60.2717 220.125 60.2633L192.83 60.265L192.963 65.0468L238.941 65.0214C238.656 68.5389 238.881 75.7069 238.964 79.2945L177.037 79.2753C176.82 61.9763 177.021 44.3246 176.985 26.9896Z"/><path fill="#FF004C" d="M44.9899 27.0187L106.998 26.9971C106.85 31.4598 106.987 36.7675 106.997 41.2924L60.8324 41.2624C61.201 48.2559 60.8408 57.7354 60.9583 65.0504L74.875 65.0156L106.994 65.0042C106.857 69.5005 106.989 74.7443 106.996 79.2963L45.0467 79.2885C44.6747 62.3418 44.9964 44.0997 44.9899 27.0187Z"/><path fill="#FF004C" d="M156.987 27.0149L172.995 26.9979C172.578 43.6523 172.969 62.4638 172.993 79.206C171.791 79.5711 159.52 79.2808 157.046 79.2884C156.905 73.3268 157.004 66.9906 156.997 61.0005L126.515 60.9911L126.573 79.2856L110.785 79.2584C110.441 62.3199 110.739 44.0227 110.738 26.9905L126.551 27.0372C126.58 33.2037 126.557 39.3704 126.482 45.5366C136.402 45.2894 147.051 45.4628 157.026 45.4632L156.987 27.0149Z"/><path fill="#FF004C" d="M374.738 26.989L390.551 27.0378C390.435 33.2453 390.55 39.8066 390.556 46.0421L421.016 46.0399L420.987 27.0154L436.971 27.0128C436.725 30.1378 436.887 35.8657 436.887 39.1401C436.859 46.1972 436.887 53.2543 436.969 60.3109C429.887 60.02 420.743 60.2517 413.499 60.2411C413.644 66.4528 413.537 73.024 413.573 79.2856L398.046 79.2883C397.899 73.0961 397.999 66.5131 397.989 60.2908C390.303 60.1959 382.479 60.2655 374.782 60.2601C374.474 49.6541 374.741 37.7013 374.738 26.989Z"/></svg>