<?xml version="1.0" encoding="utf-8" ?><svg xmlns="http://www.w3.org/2000/svg" xmlns:xlink="http://www.w3.org/1999/xlink" width="887" height="265" viewBox="0 0 887 265"><path fill="#242426" transform="scale(0.258751 0.258789)" d="M173.092 15.4411C213.742 12.7682 260.998 25.589 293.008 50.6937C336.591 85.2743 359.664 140.398 364.194 194.917C374.192 315.241 335.962 432.117 200.251 447.851C97.8676 454.561 33.1741 395.421 11.4334 297.91C-0.290408 245.327 2.89071 216.136 12.7777 163.788C28.564 80.2054 86.7248 20.7002 173.092 15.4411ZM190.607 373.274C274.527 367.006 285.627 269.372 281.06 202.978C277.434 150.25 241.944 84.4796 180.928 89.1578C180.414 89.1939 179.901 89.2412 179.39 89.2998C154.699 92.974 130.201 105.729 115.498 126.517C65.3874 197.362 74.6627 375.653 190.607 373.274Z"/><path fill="#242426" transform="scale(0.258751 0.258789)" d="M1408.51 23.1019C1434.17 21.9822 1472.45 23.0123 1498.84 22.9679C1533.19 22.9101 1592.63 20.7883 1624.34 28.3543C1656.93 35.8704 1685.13 56.2014 1702.55 84.7561C1723.01 118.145 1724.95 158.396 1715.9 195.98C1707.65 230.266 1687.05 249.019 1657.52 266.657C1649.84 271.244 1641.77 273.819 1633.97 278.532C1635.02 283.639 1650.43 305.998 1654.11 312.53C1669.47 340.25 1684.46 368.173 1699.07 396.293C1702.26 402.301 1721.43 433.798 1720.06 437.68C1712.99 439.572 1662.94 438.657 1652.75 438.617L1634.78 438.501C1627.62 428.159 1615.57 403.921 1608.98 391.704L1569.7 320.26C1565.34 312.168 1554.72 286.58 1546.78 286.111C1528.85 285.052 1507.47 285.789 1489.49 286.013C1491.97 336.429 1491.11 388.039 1491.41 438.653C1470.05 439.68 1431.14 439.095 1409.64 438.551C1410.27 300.067 1409.89 161.58 1408.51 23.1019ZM1489.86 214.858C1524.12 215.169 1570.88 217.399 1603.82 209.7C1609 208.488 1614.67 204.4 1618.98 201.18C1630.92 190.974 1638.23 176.364 1639.23 160.682C1642.33 117.09 1611.45 96.8359 1571.8 96.164C1545.23 95.7138 1519.05 96.0692 1492.49 96.4475L1490.07 97.3091C1489.49 99.9145 1490.57 129.476 1490.61 135.568C1490.81 162 1490.56 188.434 1489.86 214.858Z"/><path fill="#242426" transform="scale(0.258751 0.258789)" d="M1881.35 23.3396C1904.01 21.9631 1938.58 22.9802 1962 23.1634C1962.55 49.4169 1962.73 75.6771 1962.54 101.936C1962.36 113.714 1959.71 188.499 1962.52 193.427L1964.31 193.698C2015.24 141.428 2057.74 77.8478 2108.27 25.0562C2111.3 21.8946 2191.71 23.3809 2202.18 23.7003C2193.82 36.4132 2171.81 60.222 2161.03 72.9164L2086.46 161.396C2077.47 171.966 2055.88 195.913 2050.11 206.769C2050.01 211.019 2063.89 229.062 2067.57 233.89C2095.57 270.64 2121.12 310.008 2149.46 346.412C2150.07 348.027 2152.41 351.047 2153.48 352.593C2173.5 381.421 2195.52 409.099 2214.51 438.637C2184.02 439.667 2148.47 438.763 2117.76 438.676C2086.51 395.016 2055.57 352.029 2022.87 309.354C2018 302.989 1998.27 274.048 1993.21 270.316C1988.06 272.517 1966.91 302.215 1960.91 309.134C1960.24 351.434 1963.01 395.543 1962.2 438.713C1939.99 439.464 1903.2 439.388 1881.3 438.536L1881.35 23.3396Z"/><path fill="#242426" transform="scale(0.258751 0.258789)" d="M971.009 23.3352C999.173 21.9383 1036.65 23.0421 1065.37 23.0376L1235.09 23.1649C1234.97 48.0975 1235.13 73.0305 1235.55 97.9598C1173.5 98.6159 1115.5 95.6409 1051.79 98.2543L1051.51 190.115C1069.22 190.363 1088.71 189.331 1106.7 189.314C1144.05 189.546 1181.39 190.064 1218.72 190.867C1218.66 214.768 1218.78 238.67 1219.07 262.569C1199.59 263.838 1057.75 260.812 1053.41 263.971L1053.75 269.951L1053.7 364.738C1072.16 365.248 1093.25 364.639 1111.94 364.68L1235.19 365.134C1234.97 389.221 1235.56 414.454 1235.77 438.626C1198.84 439.384 1160.18 438.829 1123.15 438.844L970.31 438.699L971.009 23.3352Z"/><path fill="#242426" transform="scale(0.258751 0.258789)" d="M2341.25 23.3523C2350.05 22.8099 2365.64 23.5131 2374.78 23.6788C2391.97 23.9681 2409.17 24.0792 2426.37 24.0121L2619.14 23.7305C2618.79 48.7508 2618.84 73.7751 2619.27 98.7942C2587.21 99.4718 2553 98.9091 2520.77 98.9773L2520.83 363.491C2550.84 364.811 2588.89 363.732 2619.51 363.743C2619.5 379.394 2619.48 395.003 2619.66 410.653C2619.76 418.464 2621.34 430.129 2620.58 437.406L2618.75 438.504C2560.46 439.193 2502.17 439.353 2443.88 438.983C2410.21 438.898 2374.55 439.363 2341.01 438.451C2341.29 413.453 2341.27 388.452 2340.95 363.454C2373.61 363.698 2405.1 364.161 2437.94 363.661C2439.95 291.399 2438.29 218.724 2438.71 146.436C2438.8 130.799 2438.65 114.533 2440.23 98.9739C2409.23 98.0713 2374.03 98.8204 2342.67 98.8065C2342.63 72.9769 2342.55 49.1475 2341.25 23.3523Z"/><path fill="#242426" transform="scale(0.258751 0.258789)" d="M748.164 23.2579C774.046 22.8905 807.098 22.2821 832.58 23.4524C829.878 32.905 824.764 43.9759 821.348 53.4125C814.339 72.7742 805.818 93.6519 799.718 113.263C784.251 147.857 774.629 186.838 761.482 222.164C738.165 284.823 716.117 347.903 692.769 410.517C689.811 418.45 688.284 430.373 683.831 437.232C676.141 439.666 617.934 439.616 609.884 437.316L503.939 144.818L480.814 80.8358C476.701 69.7183 461.683 32.5896 461.146 23.3797C471.835 22.851 537.273 23.0179 544.719 24.5595C548.052 29.134 570.768 99.027 573.448 106.969C590.746 158.48 608.975 209.675 628.127 260.527C635.173 279.62 639.668 296.805 647.892 315.864C652.66 304.696 656.747 291.917 661.116 280.419C678.18 235.517 692.814 190.019 706.979 144.164C713.784 122.137 722.65 99.976 729.62 77.9207C735.21 60.2284 744.584 41.313 748.164 23.2579Z"/><path fill="#242426" transform="scale(0.258751 0.258789)" d="M2780.95 22.5302C2803.97 24.9888 2839.68 22.5729 2863.84 23.4485C2864.7 91.2868 2864.95 159.132 2864.58 226.974C2864.58 269.461 2865.87 323.107 2863.16 364.883C2919.86 365.339 2978.27 364.061 3034.71 365.186C3035.42 389.587 3035.81 413.996 3035.88 438.407C2977.56 439.249 2917.81 438.635 2859.39 438.597L2811.62 438.521C2805.19 438.513 2791.08 438.214 2785.29 439.084C2780.7 436.904 2782.27 424.257 2782.3 419.067L2782.31 119.465C2782.41 104.918 2783.85 31.813 2780.95 22.5302Z"/><path fill="white" fill-opacity="0.011764706" transform="scale(0.258751 0.258789)" d="M2785.29 439.084C2782.04 439.737 2779.89 439.394 2777.31 437.712C2778.22 431.681 2777.85 411.672 2777.79 404.926L2776.84 334.175C2776.46 250.619 2776.66 167.061 2777.45 83.5074C2777.58 75.0831 2777.07 26.4868 2778.04 23.1297L2780.95 22.5302C2783.85 31.813 2782.41 104.918 2782.31 119.465L2782.3 419.067C2782.27 424.257 2780.7 436.904 2785.29 439.084Z"/><path fill="#242426" transform="scale(0.258751 0.258789)" d="M4.2929 943.244C17.6357 942.374 37.3878 942.997 51.1766 942.998L141.125 943.028L416.099 943.075L1271.39 943.072L2698.8 943.009L3174.81 943.008C3259.21 942.44 3343.61 942.541 3428 943.31L3428 1017.09C3411.2 1018.56 3391.61 1018.11 3374.7 1018.01L3310.33 1017.91L3088.02 1017.98L2369.63 1017.99L5.90629 1018.07C4.50937 993.459 6.04908 969.245 4.2929 943.244Z"/><path fill="#242426" transform="scale(0.258751 0.258789)" d="M3.62528 602.914C16.7069 602.036 40.0463 602.8 53.5631 602.839L149.894 603.025L457.681 603.035L1418.38 602.861L2757.33 602.9L3193.69 602.86C3269.76 602.823 3352.89 600.607 3428 603.26L3428 675.945C3398.35 678.12 3370.7 677.297 3341.11 677.012L3257.53 676.899L2926.98 676.967L1896.33 676.988L624.054 676.944L209.961 676.81L77.6074 676.837C54.699 676.857 26.3497 677.647 3.75664 676.509L3.62528 602.914Z"/><path fill="#242426" transform="scale(0.258751 0.258789)" d="M3174.12 23.3144C3191.45 22.1401 3239.24 22.6496 3256.83 23.365C3256.67 70.5351 3254.64 117.052 3254.76 164.001L3254.73 303.592C3254.83 323.849 3256.23 345.699 3255.78 365.629C3298.28 364.173 3341.29 365.452 3383.86 364.852C3397.9 364.653 3414.13 364.51 3428 366.056L3428 437.027C3419.56 438.427 3399.41 438.73 3390.47 438.847C3370.1 439.044 3349.72 439.12 3329.35 439.075C3278.99 439.045 3223.83 440.037 3173.83 438.56C3178.08 386.728 3174.71 321.454 3174.21 269.079L3174.12 23.3144Z"/></svg>