<?xml version="1.0" encoding="UTF-8" standalone="no"?>
<!DOCTYPE svg PUBLIC "-//W3C//DTD SVG 1.1//EN" "http://www.w3.org/Graphics/SVG/1.1/DTD/svg11.dtd">
<svg width="100%" height="100%" viewBox="0 0 1513 589" version="1.1" xmlns="http://www.w3.org/2000/svg" xmlns:xlink="http://www.w3.org/1999/xlink" xml:space="preserve" xmlns:serif="http://www.serif.com/" style="fill-rule:evenodd;clip-rule:evenodd;stroke-linejoin:round;stroke-miterlimit:2;">
    <g transform="matrix(1,0,0,1,-508.224,-908.536)">
        <g transform="matrix(16.0909,0,0,16.0909,-10171.8,-21623.3)">
            <path d="M702.903,1414.97C704.275,1414.98 705.593,1415.64 705.593,1415.64L711.7,1401.09L723.3,1401.09L708.5,1436.09L696.9,1436.09L682.1,1401.09L694.8,1401.09L700.621,1415.39C700.621,1415.39 701.59,1414.96 702.903,1414.97ZM742.05,1436.89C739.25,1436.89 736.658,1436.44 734.275,1435.56C731.892,1434.68 729.825,1433.42 728.075,1431.79C726.325,1430.15 724.967,1428.22 724,1425.99C723.033,1423.75 722.55,1421.29 722.55,1418.59C722.55,1415.89 723.033,1413.42 724,1411.19C724.967,1408.95 726.325,1407.02 728.075,1405.39C729.825,1403.75 731.892,1402.5 734.275,1401.61C736.658,1400.73 739.25,1400.29 742.05,1400.29C745.483,1400.29 748.525,1400.89 751.175,1402.09C753.825,1403.29 756.017,1405.02 757.75,1407.29L750.3,1413.94C749.267,1412.64 748.125,1411.63 746.875,1410.91C745.625,1410.19 744.217,1409.84 742.65,1409.84C741.417,1409.84 740.3,1410.04 739.3,1410.44C738.3,1410.84 737.442,1411.42 736.725,1412.19C736.008,1412.95 735.45,1413.88 735.05,1414.96C734.65,1416.05 734.45,1417.25 734.45,1418.59C734.45,1419.92 734.65,1421.13 735.05,1422.21C735.45,1423.3 736.008,1424.22 736.725,1424.99C737.442,1425.75 738.3,1426.34 739.3,1426.74C740.3,1427.14 741.417,1427.34 742.65,1427.34C744.217,1427.34 745.625,1426.98 746.875,1426.26C748.125,1425.55 749.267,1424.54 750.3,1423.24L757.75,1429.89C756.017,1432.12 753.825,1433.85 751.175,1435.06C748.525,1436.28 745.483,1436.89 742.05,1436.89Z" style="fill:rgb(207,156,0);"/>
        </g>
        <g transform="matrix(3.73679,0,0,3.73679,-2044.94,-4094.26)">
            <path d="M838.191,1419.55C837.194,1418.82 836.381,1417.89 835.75,1416.76C835.05,1415.51 834.7,1413.95 834.7,1412.09C834.7,1409.92 835.308,1407.94 836.525,1406.16C837.742,1404.38 839.558,1402.95 841.975,1401.89C844.392,1400.82 847.4,1400.29 851,1400.29C853.367,1400.29 855.7,1400.54 858,1401.04C860.3,1401.54 862.367,1402.3 864.2,1403.34L860.716,1411.73C859.738,1411.19 858.141,1410.53 855.852,1410C855.776,1409.98 855.701,1409.96 855.625,1409.94C855.232,1409.83 854.798,1409.75 854.344,1409.69C853.229,1409.49 851.982,1409.32 850.597,1409.2C850.578,1409.2 850.822,1406.53 850.822,1406.53L840.632,1412.19L851.131,1416.77L850.63,1414.17C850.63,1414.17 853.434,1414.09 857.029,1415.25C857.39,1415.38 857.748,1415.52 858.1,1415.64C858.196,1415.67 858.291,1415.7 858.385,1415.74C859.572,1416.2 860.813,1416.81 862.045,1417.6C863.116,1418.35 863.985,1419.31 864.65,1420.49C865.35,1421.72 865.7,1423.25 865.7,1425.09C865.7,1427.22 865.092,1429.18 863.875,1430.96C862.658,1432.75 860.85,1434.18 858.45,1435.26C856.05,1436.35 853.033,1436.89 849.4,1436.89C846.467,1436.89 843.633,1436.55 840.9,1435.89C838.167,1435.22 835.917,1434.35 834.15,1433.29L837.934,1424.72C840.198,1426.14 843.905,1427.71 848.778,1427.86C848.985,1427.87 849.19,1427.88 849.392,1427.88C849.395,1428.04 849.166,1430.55 849.166,1430.55L859.355,1424.89L848.857,1420.31L849.358,1422.91C849.358,1422.91 843.739,1423.03 838.191,1419.55ZM764.05,1436.09L739.55,1436.09L733.614,1427.29L730.4,1427.29L730.4,1436.09L718.6,1436.09L718.6,1401.09L735.45,1401.09C738.717,1401.09 741.542,1401.62 743.925,1402.69C746.308,1403.75 748.15,1405.28 749.45,1407.26C750.75,1409.25 751.4,1411.59 751.4,1414.29C751.4,1416.99 750.75,1419.31 749.45,1421.26C748.315,1422.96 746.766,1424.32 744.805,1425.32L752.089,1436L767.35,1401.09L778.95,1401.09L794.25,1436.09L782.05,1436.09L779.706,1429.99L766.395,1429.99L764.05,1436.09ZM776.439,1421.49L773.05,1412.67L769.662,1421.49L776.439,1421.49ZM730.4,1418.39L734.7,1418.39C736.333,1418.39 737.542,1418.02 738.325,1417.29C739.108,1416.55 739.5,1415.55 739.5,1414.29C739.5,1413.02 739.108,1412.02 738.325,1411.29C737.542,1410.55 736.333,1410.19 734.7,1410.19L730.4,1410.19L730.4,1418.39ZM693.5,1436.09L693.5,1410.24L683.25,1410.24L683.25,1401.09L715.55,1401.09L715.55,1410.24L705.3,1410.24L705.3,1436.09L693.5,1436.09ZM807.65,1420.17L807.65,1436.09L796.15,1436.09L796.15,1401.09L805.85,1401.09L819.15,1417L819.15,1401.09L830.65,1401.09L830.65,1436.09L820.95,1436.09L807.65,1420.17ZM881,1424.89L881,1436.09L869.2,1436.09L869.2,1401.09L897.65,1401.09L897.65,1409.99L881,1409.99L881,1415.99L895.6,1415.99L895.6,1424.89L881,1424.89ZM919.55,1436.89C916.683,1436.89 914.042,1436.44 911.625,1435.54C909.208,1434.64 907.117,1433.36 905.35,1431.71C903.583,1430.06 902.208,1428.12 901.225,1425.89C900.242,1423.65 899.75,1421.22 899.75,1418.59C899.75,1415.92 900.242,1413.48 901.225,1411.26C902.208,1409.05 903.583,1407.11 905.35,1405.46C907.117,1403.81 909.208,1402.54 911.625,1401.64C914.042,1400.74 916.667,1400.29 919.5,1400.29C922.367,1400.29 925,1400.74 927.4,1401.64C929.8,1402.54 931.883,1403.81 933.65,1405.46C935.417,1407.11 936.792,1409.05 937.775,1411.26C938.758,1413.48 939.25,1415.92 939.25,1418.59C939.25,1421.22 938.758,1423.65 937.775,1425.89C936.792,1428.12 935.417,1430.06 933.65,1431.71C931.883,1433.36 929.8,1434.64 927.4,1435.54C925,1436.44 922.383,1436.89 919.55,1436.89ZM919.5,1427.34C920.6,1427.34 921.625,1427.14 922.575,1426.74C923.525,1426.34 924.358,1425.76 925.075,1425.01C925.792,1424.26 926.35,1423.35 926.75,1422.26C927.15,1421.18 927.35,1419.95 927.35,1418.59C927.35,1417.22 927.15,1416 926.75,1414.91C926.35,1413.83 925.792,1412.91 925.075,1412.16C924.358,1411.41 923.525,1410.84 922.575,1410.44C921.625,1410.04 920.6,1409.84 919.5,1409.84C918.4,1409.84 917.375,1410.04 916.425,1410.44C915.475,1410.84 914.642,1411.41 913.925,1412.16C913.208,1412.91 912.65,1413.83 912.25,1414.91C911.85,1416 911.65,1417.22 911.65,1418.59C911.65,1419.95 911.85,1421.18 912.25,1422.26C912.65,1423.35 913.208,1424.26 913.925,1425.01C914.642,1425.76 915.475,1426.34 916.425,1426.74C917.375,1427.14 918.4,1427.34 919.5,1427.34ZM955.35,1427.29L955.35,1436.09L943.55,1436.09L943.55,1401.09L960.4,1401.09C963.667,1401.09 966.492,1401.62 968.875,1402.69C971.258,1403.75 973.1,1405.28 974.4,1407.26C975.7,1409.25 976.35,1411.59 976.35,1414.29C976.35,1416.99 975.7,1419.31 974.4,1421.26C973.265,1422.96 971.716,1424.32 969.755,1425.32L977.1,1436.09L964.5,1436.09L958.564,1427.29L955.35,1427.29ZM955.35,1418.39L959.65,1418.39C961.283,1418.39 962.492,1418.02 963.275,1417.29C964.058,1416.55 964.45,1415.55 964.45,1414.29C964.45,1413.02 964.058,1412.02 963.275,1411.29C962.492,1410.55 961.283,1410.19 959.65,1410.19L955.35,1410.19L955.35,1418.39ZM991.55,1420.67L991.55,1436.09L980.8,1436.09L980.8,1401.09L990.5,1401.09L1001.91,1419.71L1013,1401.09L1022.7,1401.09L1022.8,1436.09L1012.05,1436.09L1011.97,1420.12L1004.35,1432.94L999.15,1432.94L991.55,1420.67Z" style="fill:rgb(22,31,40);"/>
        </g>
    </g>
</svg>
